<svg width="12.799988" height="9.600006" viewBox="0 0 12.8 9.60001" fill="none" xmlns="http://www.w3.org/2000/svg" xmlns:xlink="http://www.w3.org/1999/xlink">
	<desc>
			Created with Pixso.
	</desc>
	<defs/>
	<path id="Icon" d="M6.39 4.7L0 1.5C0.02 1.09 0.2 0.71 0.5 0.43C0.79 0.15 1.19 -6.11e-5 1.6 0L11.2 0C11.6 -6.11e-5 12 0.15 12.29 0.43C12.59 0.71 12.77 1.09 12.79 1.5L6.39 4.7ZM6.39 6.49L12.8 3.29L12.8 8C12.8 8.42 12.63 8.83 12.33 9.13C12.03 9.43 11.62 9.6 11.2 9.6L1.6 9.6C1.17 9.6 0.76 9.43 0.46 9.13C0.16 8.83 0 8.42 0 8L0 3.29L6.39 6.49Z" fill="#1E1F26" fill-opacity="1.000000" fill-rule="evenodd"/>
</svg>
