<svg width="25.000000" height="25.000000" viewBox="0 0 25 25" fill="none" xmlns="http://www.w3.org/2000/svg" xmlns:xlink="http://www.w3.org/1999/xlink">
	<desc>
			Created with Pixso.
	</desc>
	<defs/>
	<path id="GitHub Icon" d="M22.32 0L2.67 0C1.19 0 0 1.19 0 2.67L0 22.32C0 23.8 1.19 25 2.67 25L22.32 25C23.8 25 25 23.8 25 22.32L25 2.67C25 1.19 23.8 0 22.32 0ZM15.47 21.41C15 21.49 14.83 21.2 14.83 20.96C14.83 20.66 14.84 19.12 14.84 17.87C14.84 17 14.55 16.45 14.21 16.16C16.27 15.93 18.45 15.65 18.45 12.08C18.45 11.07 18.09 10.56 17.5 9.91C17.59 9.67 17.91 8.68 17.4 7.39C16.62 7.15 14.85 8.39 14.85 8.39C14.11 8.19 13.32 8.08 12.53 8.08C11.74 8.08 10.94 8.19 10.21 8.39C10.21 8.39 8.43 7.15 7.66 7.39C7.15 8.67 7.46 9.66 7.56 9.91C6.97 10.56 6.69 11.07 6.69 12.08C6.69 15.63 8.77 15.93 10.84 16.16C10.57 16.4 10.33 16.81 10.25 17.41C9.72 17.65 8.36 18.06 7.55 16.63C7.04 15.75 6.13 15.68 6.13 15.68C5.22 15.66 6.07 16.25 6.07 16.25C6.67 16.52 7.09 17.6 7.09 17.6C7.63 19.25 10.22 18.69 10.22 18.69C10.22 19.47 10.24 20.73 10.24 20.96C10.24 21.2 10.07 21.49 9.59 21.41C5.91 20.17 3.33 16.67 3.33 12.57C3.33 7.45 7.25 3.56 12.37 3.56C17.5 3.56 21.65 7.45 21.65 12.57C21.65 16.67 19.15 20.18 15.47 21.41ZM10 18C9.89 18.02 9.79 17.97 9.78 17.9C9.77 17.82 9.84 17.75 9.94 17.72C10.05 17.71 10.15 17.76 10.16 17.83C10.18 17.9 10.11 17.97 10 18ZM9.46 17.95C9.46 18.02 9.38 18.08 9.27 18.08C9.15 18.09 9.06 18.03 9.06 17.95C9.06 17.87 9.15 17.81 9.26 17.81C9.36 17.8 9.46 17.86 9.46 17.95ZM8.7 17.89C8.68 17.96 8.57 17.99 8.47 17.96C8.37 17.94 8.29 17.85 8.32 17.78C8.34 17.71 8.45 17.67 8.54 17.7C8.66 17.73 8.73 17.81 8.7 17.89ZM8.01 17.58C7.96 17.65 7.86 17.63 7.77 17.55C7.69 17.48 7.67 17.37 7.72 17.32C7.77 17.26 7.88 17.27 7.96 17.36C8.04 17.43 8.06 17.54 8.01 17.58ZM7.51 17.08C7.46 17.11 7.36 17.08 7.3 16.99C7.24 16.91 7.24 16.81 7.3 16.78C7.36 16.72 7.46 16.76 7.51 16.85C7.57 16.93 7.57 17.03 7.51 17.08ZM7.14 16.54C7.09 16.59 7.01 16.56 6.95 16.5C6.89 16.43 6.88 16.35 6.93 16.31C6.98 16.26 7.06 16.28 7.12 16.34C7.18 16.41 7.19 16.5 7.14 16.54ZM6.77 16.12C6.75 16.17 6.67 16.18 6.61 16.14C6.54 16.11 6.51 16.05 6.53 16C6.55 15.97 6.61 15.95 6.69 15.98C6.76 16.02 6.79 16.08 6.77 16.12Z" fill="#918E9B" fill-opacity="1.000000" fill-rule="nonzero"/>
</svg>
