<svg width="16.000000" height="16.000000" viewBox="0 0 16 16" fill="none" xmlns="http://www.w3.org/2000/svg" xmlns:xlink="http://www.w3.org/1999/xlink">
	<desc>
			Created with Pixso.
	</desc>
	<defs>
		<clipPath id="clip0_234">
			<rect id="Icon/Font Awesome Free/Brands/L/linkedin" width="16.000000" height="16.000000" fill="white" fill-opacity="0"/>
		</clipPath>
	</defs>
	<rect id="Icon/Font Awesome Free/Brands/L/linkedin" width="16.000000" height="16.000000" fill="#FFFFFF" fill-opacity="0"/>
	<g clip-path="url(#clip0_234)">
		<path id="Vector" d="M13.71 1.33L2.28 1.33C1.75 1.33 1.33 1.76 1.33 2.29L1.33 13.7C1.33 14.23 1.75 14.66 2.28 14.66L13.71 14.66C14.23 14.66 14.66 14.23 14.66 13.7L14.66 2.29C14.66 1.76 14.23 1.33 13.71 1.33ZM5.36 12.76L3.38 12.76L3.38 6.39L5.36 6.39L5.36 12.76L5.36 12.76ZM4.37 5.52C3.74 5.52 3.22 5.01 3.22 4.38C3.22 3.75 3.74 3.23 4.37 3.23C5 3.23 5.52 3.75 5.52 4.38C5.52 5.01 5 5.52 4.37 5.52ZM12.77 12.76L10.79 12.76L10.79 9.66C10.79 8.92 10.77 7.97 9.76 7.97C8.73 7.97 8.58 8.78 8.58 9.61L8.58 12.76L6.6 12.76L6.6 6.39L8.49 6.39L8.49 7.26L8.52 7.26C8.79 6.76 9.43 6.24 10.39 6.24C12.39 6.24 12.77 7.55 12.77 9.27L12.77 12.76Z" fill="#FFFFFF" fill-opacity="1.000000" fill-rule="nonzero"/>
	</g>
</svg>
